<mxfile host="Electron" modified="2024-04-26T10:09:02.945Z" agent="Mozilla/5.0 (Windows NT 10.0; Win64; x64) AppleWebKit/537.36 (KHTML, like Gecko) draw.io/22.1.2 Chrome/114.0.5735.289 Electron/25.9.4 Safari/537.36" etag="NTZEezNG0sx0pgcxCaRo" version="22.1.2" type="device">
  <diagram name="第 1 页" id="10sJxZfSDB7b1_HUDJtr">
    <mxGraphModel dx="474" dy="328" grid="1" gridSize="10" guides="1" tooltips="1" connect="1" arrows="1" fold="1" page="1" pageScale="1" pageWidth="100000" pageHeight="100000" math="0" shadow="0">
      <root>
        <mxCell id="0" />
        <mxCell id="1" parent="0" />
        <mxCell id="wtBM5a8TTr05XdsjPS_i-11" value="" style="rounded=0;whiteSpace=wrap;html=1;sketch=1;curveFitting=1;jiggle=2;" vertex="1" parent="1">
          <mxGeometry x="140" y="651" width="240" height="169" as="geometry" />
        </mxCell>
        <mxCell id="--WNvcjfRKUR3Vz554Hq-17" value="" style="whiteSpace=wrap;html=1;sketch=1;curveFitting=1;jiggle=2;fontFamily=Comic Sans MS;" parent="1" vertex="1">
          <mxGeometry x="260" y="60" width="460" height="220" as="geometry" />
        </mxCell>
        <mxCell id="--WNvcjfRKUR3Vz554Hq-1" value="" style="whiteSpace=wrap;html=1;sketch=1;curveFitting=1;jiggle=2;fontFamily=Comic Sans MS;" parent="1" vertex="1">
          <mxGeometry x="280" y="80" width="150" height="180" as="geometry" />
        </mxCell>
        <mxCell id="--WNvcjfRKUR3Vz554Hq-2" value="QLabel" style="whiteSpace=wrap;html=1;sketch=1;curveFitting=1;jiggle=2;fontFamily=Comic Sans MS;" parent="1" vertex="1">
          <mxGeometry x="290" y="95" width="130" height="30" as="geometry" />
        </mxCell>
        <mxCell id="--WNvcjfRKUR3Vz554Hq-3" value="QPushButton" style="whiteSpace=wrap;html=1;sketch=1;curveFitting=1;jiggle=2;fontFamily=Comic Sans MS;" parent="1" vertex="1">
          <mxGeometry x="290" y="135" width="130" height="30" as="geometry" />
        </mxCell>
        <mxCell id="--WNvcjfRKUR3Vz554Hq-4" value="" style="whiteSpace=wrap;html=1;sketch=1;curveFitting=1;jiggle=2;fontFamily=Comic Sans MS;" parent="1" vertex="1">
          <mxGeometry x="290" y="175" width="130" height="75" as="geometry" />
        </mxCell>
        <mxCell id="--WNvcjfRKUR3Vz554Hq-5" value="QListWidget" style="text;html=1;align=center;verticalAlign=middle;resizable=0;points=[];autosize=1;strokeColor=none;fillColor=none;fontFamily=Comic Sans MS;" parent="1" vertex="1">
          <mxGeometry x="305" y="175" width="100" height="30" as="geometry" />
        </mxCell>
        <mxCell id="--WNvcjfRKUR3Vz554Hq-6" value="QlistItem" style="whiteSpace=wrap;html=1;sketch=1;curveFitting=1;jiggle=2;fontFamily=Comic Sans MS;" parent="1" vertex="1">
          <mxGeometry x="300" y="202.5" width="110" height="15" as="geometry" />
        </mxCell>
        <mxCell id="--WNvcjfRKUR3Vz554Hq-7" value="QlistItem" style="whiteSpace=wrap;html=1;sketch=1;curveFitting=1;jiggle=2;fontFamily=Comic Sans MS;" parent="1" vertex="1">
          <mxGeometry x="300" y="225" width="110" height="14" as="geometry" />
        </mxCell>
        <mxCell id="--WNvcjfRKUR3Vz554Hq-8" value="QLabel" style="whiteSpace=wrap;html=1;sketch=1;curveFitting=1;jiggle=2;fontFamily=Comic Sans MS;" parent="1" vertex="1">
          <mxGeometry x="490" y="101.5" width="130" height="30" as="geometry" />
        </mxCell>
        <mxCell id="--WNvcjfRKUR3Vz554Hq-9" value="QPushButton" style="whiteSpace=wrap;html=1;sketch=1;curveFitting=1;jiggle=2;fontFamily=Comic Sans MS;" parent="1" vertex="1">
          <mxGeometry x="450" y="156.5" width="100" height="30" as="geometry" />
        </mxCell>
        <mxCell id="--WNvcjfRKUR3Vz554Hq-10" value="QListWidget" style="whiteSpace=wrap;html=1;sketch=1;curveFitting=1;jiggle=2;fontFamily=Comic Sans MS;" parent="1" vertex="1">
          <mxGeometry x="570" y="156.5" width="100" height="30" as="geometry" />
        </mxCell>
        <mxCell id="--WNvcjfRKUR3Vz554Hq-11" value="QlistItem" style="whiteSpace=wrap;html=1;sketch=1;curveFitting=1;jiggle=2;fontFamily=Comic Sans MS;" parent="1" vertex="1">
          <mxGeometry x="555" y="224" width="70" height="15" as="geometry" />
        </mxCell>
        <mxCell id="--WNvcjfRKUR3Vz554Hq-12" value="QlistItem" style="whiteSpace=wrap;html=1;sketch=1;curveFitting=1;jiggle=2;fontFamily=Comic Sans MS;" parent="1" vertex="1">
          <mxGeometry x="635" y="224" width="70" height="15" as="geometry" />
        </mxCell>
        <mxCell id="--WNvcjfRKUR3Vz554Hq-13" value="" style="edgeStyle=none;orthogonalLoop=1;jettySize=auto;html=1;rounded=0;exitX=0.5;exitY=1;exitDx=0;exitDy=0;entryX=0.5;entryY=0;entryDx=0;entryDy=0;sketch=1;curveFitting=1;jiggle=2;" parent="1" source="--WNvcjfRKUR3Vz554Hq-8" target="--WNvcjfRKUR3Vz554Hq-10" edge="1">
          <mxGeometry width="100" relative="1" as="geometry">
            <mxPoint x="670" y="91.5" as="sourcePoint" />
            <mxPoint x="770" y="91.5" as="targetPoint" />
            <Array as="points" />
          </mxGeometry>
        </mxCell>
        <mxCell id="--WNvcjfRKUR3Vz554Hq-14" value="" style="edgeStyle=none;orthogonalLoop=1;jettySize=auto;html=1;rounded=0;entryX=0.5;entryY=0;entryDx=0;entryDy=0;sketch=1;curveFitting=1;jiggle=2;exitX=0.5;exitY=1;exitDx=0;exitDy=0;" parent="1" source="--WNvcjfRKUR3Vz554Hq-8" target="--WNvcjfRKUR3Vz554Hq-9" edge="1">
          <mxGeometry width="100" relative="1" as="geometry">
            <mxPoint x="565" y="141.5" as="sourcePoint" />
            <mxPoint x="640" y="166.5" as="targetPoint" />
            <Array as="points" />
          </mxGeometry>
        </mxCell>
        <mxCell id="--WNvcjfRKUR3Vz554Hq-15" value="" style="edgeStyle=none;orthogonalLoop=1;jettySize=auto;html=1;rounded=0;exitX=0.5;exitY=1;exitDx=0;exitDy=0;entryX=0.565;entryY=0.072;entryDx=0;entryDy=0;sketch=1;curveFitting=1;jiggle=2;entryPerimeter=0;" parent="1" source="--WNvcjfRKUR3Vz554Hq-10" target="--WNvcjfRKUR3Vz554Hq-11" edge="1">
          <mxGeometry width="100" relative="1" as="geometry">
            <mxPoint x="565" y="141.5" as="sourcePoint" />
            <mxPoint x="640" y="166.5" as="targetPoint" />
            <Array as="points" />
          </mxGeometry>
        </mxCell>
        <mxCell id="--WNvcjfRKUR3Vz554Hq-16" value="" style="edgeStyle=none;orthogonalLoop=1;jettySize=auto;html=1;rounded=0;exitX=0.5;exitY=1;exitDx=0;exitDy=0;entryX=0.5;entryY=0;entryDx=0;entryDy=0;sketch=1;curveFitting=1;jiggle=2;" parent="1" source="--WNvcjfRKUR3Vz554Hq-10" target="--WNvcjfRKUR3Vz554Hq-12" edge="1">
          <mxGeometry width="100" relative="1" as="geometry">
            <mxPoint x="640" y="196.5" as="sourcePoint" />
            <mxPoint x="605" y="235.5" as="targetPoint" />
            <Array as="points" />
          </mxGeometry>
        </mxCell>
        <mxCell id="wtBM5a8TTr05XdsjPS_i-1" value="" style="edgeStyle=none;orthogonalLoop=1;jettySize=auto;html=1;rounded=0;sketch=1;curveFitting=1;jiggle=2;" edge="1" parent="1">
          <mxGeometry width="100" relative="1" as="geometry">
            <mxPoint x="160" y="760" as="sourcePoint" />
            <mxPoint x="160" y="680" as="targetPoint" />
            <Array as="points" />
          </mxGeometry>
        </mxCell>
        <mxCell id="wtBM5a8TTr05XdsjPS_i-2" value="" style="edgeStyle=none;orthogonalLoop=1;jettySize=auto;html=1;rounded=0;sketch=1;curveFitting=1;jiggle=2;" edge="1" parent="1">
          <mxGeometry width="100" relative="1" as="geometry">
            <mxPoint x="160" y="760" as="sourcePoint" />
            <mxPoint x="240" y="760" as="targetPoint" />
            <Array as="points" />
          </mxGeometry>
        </mxCell>
        <mxCell id="wtBM5a8TTr05XdsjPS_i-3" value="" style="edgeStyle=none;orthogonalLoop=1;jettySize=auto;html=1;rounded=0;sketch=1;curveFitting=1;jiggle=2;" edge="1" parent="1">
          <mxGeometry width="100" relative="1" as="geometry">
            <mxPoint x="280" y="679.5" as="sourcePoint" />
            <mxPoint x="360" y="679.5" as="targetPoint" />
            <Array as="points" />
          </mxGeometry>
        </mxCell>
        <mxCell id="wtBM5a8TTr05XdsjPS_i-4" value="" style="edgeStyle=none;orthogonalLoop=1;jettySize=auto;html=1;rounded=0;sketch=1;curveFitting=1;jiggle=2;" edge="1" parent="1">
          <mxGeometry width="100" relative="1" as="geometry">
            <mxPoint x="280" y="679.5" as="sourcePoint" />
            <mxPoint x="280" y="759.5" as="targetPoint" />
            <Array as="points" />
          </mxGeometry>
        </mxCell>
        <mxCell id="wtBM5a8TTr05XdsjPS_i-5" value="x" style="text;html=1;align=center;verticalAlign=middle;resizable=0;points=[];autosize=1;strokeColor=none;fillColor=none;fontFamily=Comic Sans MS;" vertex="1" parent="1">
          <mxGeometry x="352" y="662.5" width="30" height="30" as="geometry" />
        </mxCell>
        <mxCell id="wtBM5a8TTr05XdsjPS_i-6" value="y" style="text;html=1;align=center;verticalAlign=middle;resizable=0;points=[];autosize=1;strokeColor=none;fillColor=none;fontFamily=Comic Sans MS;" vertex="1" parent="1">
          <mxGeometry x="265" y="749.5" width="30" height="30" as="geometry" />
        </mxCell>
        <mxCell id="wtBM5a8TTr05XdsjPS_i-7" value="x" style="text;html=1;align=center;verticalAlign=middle;resizable=0;points=[];autosize=1;strokeColor=none;fillColor=none;fontFamily=Comic Sans MS;" vertex="1" parent="1">
          <mxGeometry x="232" y="744" width="30" height="30" as="geometry" />
        </mxCell>
        <mxCell id="wtBM5a8TTr05XdsjPS_i-8" value="y" style="text;html=1;align=center;verticalAlign=middle;resizable=0;points=[];autosize=1;strokeColor=none;fillColor=none;fontFamily=Comic Sans MS;" vertex="1" parent="1">
          <mxGeometry x="144" y="651" width="30" height="30" as="geometry" />
        </mxCell>
        <mxCell id="wtBM5a8TTr05XdsjPS_i-9" value="右手系坐标系&lt;br&gt;(数学领域常用)" style="text;html=1;align=center;verticalAlign=middle;resizable=0;points=[];autosize=1;strokeColor=none;fillColor=none;fontFamily=Comic Sans MS;" vertex="1" parent="1">
          <mxGeometry x="144" y="769" width="100" height="40" as="geometry" />
        </mxCell>
        <mxCell id="wtBM5a8TTr05XdsjPS_i-10" value="左手系坐标系&lt;br&gt;(计算机领域常用)" style="text;html=1;align=center;verticalAlign=middle;resizable=0;points=[];autosize=1;strokeColor=none;fillColor=none;fontFamily=Comic Sans MS;" vertex="1" parent="1">
          <mxGeometry x="260" y="768.5" width="120" height="40" as="geometry" />
        </mxCell>
      </root>
    </mxGraphModel>
  </diagram>
</mxfile>
